<svg width="512" height="512" viewBox="0 0 512 512" fill="none" xmlns="http://www.w3.org/2000/svg">
  <rect width="512" height="512" rx="110" fill="#050C1A"/>
  <polygon points="256,52 332,304 256,356 180,304" fill="#22D3EE" opacity=".1"/>
  <polygon points="256,52 332,304 256,356 180,304" fill="none" stroke="#22D3EE" stroke-width="9" stroke-linejoin="round"/>
  <line x1="256" y1="52" x2="256" y2="356" stroke="#22D3EE" stroke-width="3.5" stroke-dasharray="14 12" opacity=".35"/>
  <line x1="242" y1="100" x2="220" y2="290" stroke="#22D3EE" stroke-width="1.5" opacity=".18"/>
  <line x1="270" y1="100" x2="292" y2="290" stroke="#22D3EE" stroke-width="1.5" opacity=".18"/>
  <rect x="224" y="356" width="64" height="32" rx="6" fill="#0D1F3C" stroke="#22D3EE" stroke-width="4"/>
  <line x1="224" y1="372" x2="288" y2="372" stroke="#22D3EE" stroke-width="1.5" opacity=".3"/>
  <line x1="256" y1="388" x2="256" y2="460" stroke="#1E3A5F" stroke-width="22" stroke-linecap="round"/>
  <line x1="243" y1="408" x2="269" y2="408" stroke="#22D3EE" stroke-width="3" opacity=".3"/>
  <line x1="243" y1="430" x2="269" y2="430" stroke="#22D3EE" stroke-width="3" opacity=".3"/>
  <polygon points="244,460 256,478 268,460" fill="none" stroke="#22D3EE" stroke-width="4" stroke-linejoin="round" opacity=".5"/>
  <circle cx="256" cy="52" r="14" fill="#22D3EE"/>
  <circle cx="256" cy="52" r="7" fill="#050C1A"/>
  <circle cx="256" cy="52" r="3.5" fill="#22D3EE"/>
</svg>
